<?xml version="1.0" encoding="utf-8"?>
<!-- Generator: Adobe Illustrator 16.0.0, SVG Export Plug-In . SVG Version: 6.00 Build 0)  -->
<!DOCTYPE svg PUBLIC "-//W3C//DTD SVG 1.1//EN" "http://www.w3.org/Graphics/SVG/1.1/DTD/svg11.dtd">
<svg version="1.1" id="Layer_1" xmlns="http://www.w3.org/2000/svg" xmlns:xlink="http://www.w3.org/1999/xlink" x="0px" y="0px"
	 width="800px" height="800px" viewBox="0 0 800 800" enable-background="new 0 0 800 800" xml:space="preserve">
<path fill="#48FF43" d="M400,66.667C215.905,66.667,66.667,215.905,66.667,400c0,184.094,149.238,333.333,333.333,333.333
	c184.094,0,333.333-149.239,333.333-333.333C733.333,215.905,584.094,66.667,400,66.667z"/>
<path fill="#152C70" d="M400.003,200c-55.227,0-99.999,44.771-99.999,100c0,55.23,44.772,100,99.999,100c55.23,0,100-44.77,100-100
	C500.003,244.771,455.233,200,400.003,200z"/>
<path fill="#152C70" d="M596.493,551.76c4.693,9.384,4.693,20.431,0,29.816c0.283-0.586-0.023,0.047-0.023,0.047l-0.026,0.05
	l-0.05,0.101L596.276,582l-0.273,0.52c-0.203,0.384-0.446,0.827-0.729,1.33c-0.573,1.011-1.316,2.257-2.25,3.707
	c-1.863,2.903-4.493,6.623-8.03,10.866c-7.093,8.511-17.78,19.061-33.16,29.313c-31.066,20.71-79.326,38.931-151.826,38.931
	c-122.838,0-174.486-52.32-191.119-76.284c-10.063-14.499-8.949-31.439-2.862-43.613c24.546-49.093,74.723-80.103,129.61-80.103
	H458.81C517.116,466.667,570.417,499.61,596.493,551.76z"/>
</svg>
